# xmcd
#
# Track frame offsets: 
#        150
#        24887
#        40083
#        58445
#        80426
#        97081
#        123410
#        134068
#        148058
#        166759
#        187166
#        206857
#        230168
#
# Disc length: 3229 seconds
#
# Revision: 0
# Processed by: cddbd v1.5.2PL0 Copyright (c) Steve Scherf et al.
# Submitted via: ExactAudioCopy v0.99pb4
#
DISCID=c60c9b0d
DTITLE=Right Rest - Nezabudneme
DYEAR=2004
DGENRE=Bebob
TTITLE0=potomkovia slavy
TTITLE1=justicny omyl
TTITLE2=zahodena nadej
TTITLE3=integracia
TTITLE4=nezabudneme
TTITLE5=symbol slobody
TTITLE6=armada
TTITLE7=slepa viera
TTITLE8=otvorene klamstvo
TTITLE9=vecny plamen
TTITLE10=priatel'stvo
TTITLE11=stare casy
TTITLE12=belasa hrdost'
EXTD=
EXTT0=
EXTT1=
EXTT2=
EXTT3=
EXTT4=
EXTT5=
EXTT6=
EXTT7=
EXTT8=
EXTT9=
EXTT10=
EXTT11=
EXTT12=
PLAYORDER=
